<?xml version="1.0" encoding="utf-8"?>
<!-- Generator: Adobe Illustrator 26.0.1, SVG Export Plug-In . SVG Version: 6.00 Build 0)  -->
<svg version="1.1" id="Camada_1" xmlns="http://www.w3.org/2000/svg" xmlns:xlink="http://www.w3.org/1999/xlink" x="0px" y="0px"
	 viewBox="0 0 24 24" style="enable-background:new 0 0 24 24;" xml:space="preserve">
<style type="text/css">
	.st0{fill:#F2F2F7;stroke:#000000;stroke-width:0.2073;stroke-miterlimit:10;}
</style>
<path class="st0" d="M23.7,18.4c-0.7,0.3-1.5,0-1.9-0.7l-3.4-4.7L18,12.4l-3.9,5.3c-0.3,0.6-1.1,0.9-1.8,0.7l5-6.8l-4.7-6.1
	c0.7-0.3,1.5,0,1.9,0.7l3.5,4.7l3.5-4.7c0.3-0.6,1.1-0.9,1.7-0.7L21.5,8L19,11.2c-0.3,0.2-0.3,0.7-0.1,0.9c0,0,0,0,0.1,0.1
	L23.7,18.4z M0.3,11.6l0.4-2c1.1-4,5.7-5.7,8.9-3.2c1.9,1.5,2.3,3.5,2.2,5.8H1.4c-0.2,4.1,2.8,6.7,6.7,5.4c1.3-0.5,2.2-1.5,2.5-2.8
	c0.2-0.7,0.5-0.8,1.1-0.6c-0.2,1.6-1.1,3-2.5,3.9C6.8,19.3,3.9,19,2,17.1c-0.9-1-1.5-2.4-1.6-3.8c0-0.2-0.1-0.4-0.1-0.7
	C0.3,12.3,0.3,12,0.3,11.6L0.3,11.6z M1.4,11.3h9.4c-0.1-3-2-5.1-4.5-5.2C3.5,6.1,1.5,8.2,1.4,11.3L1.4,11.3z"/>
</svg>
