<?xml version="1.0" encoding="utf-8"?>
<!-- Generator: Adobe Illustrator 26.0.1, SVG Export Plug-In . SVG Version: 6.00 Build 0)  -->
<svg version="1.1" id="Camada_1" xmlns="http://www.w3.org/2000/svg" xmlns:xlink="http://www.w3.org/1999/xlink" x="0px" y="0px"
	 viewBox="0 0 32 32" style="enable-background:new 0 0 32 32;" xml:space="preserve">
<style type="text/css">
	.st0{fill:#EDEFF4;stroke:#000000;stroke-width:0.4387;stroke-miterlimit:10;}
</style>
<path class="st0" d="M16,0.8c-8.6,0-15.6,7-15.6,15.6c0,6.9,4.5,12.7,10.6,14.8c0.8,0.1,1.1-0.3,1.1-0.8c0-0.4,0-1.3,0-2.6
	c-4.3,0.9-5.2-2.1-5.2-2.1c-0.7-1.8-1.7-2.3-1.7-2.3c-1.4-1,0.1-0.9,0.1-0.9c1.6,0.1,2.4,1.6,2.4,1.6c1.4,2.4,3.6,1.7,4.5,1.3
	c0.1-1,0.5-1.7,1-2.1c-3.5-0.4-7.1-1.7-7.1-7.7c0-1.7,0.6-3.1,1.6-4.2C7.5,11,7,9.4,7.8,7.3c0,0,1.3-0.4,4.3,1.6
	c1.2-0.3,2.6-0.5,3.9-0.5c1.3,0,2.6,0.2,3.9,0.5c3-2,4.3-1.6,4.3-1.6c0.8,2.1,0.3,3.7,0.2,4.1c1,1.1,1.6,2.5,1.6,4.2
	c0,6-3.6,7.3-7.1,7.7c0.5,0.5,1,1.4,1,2.9c0,2.1,0,3.8,0,4.3c0,0.4,0.3,0.9,1.1,0.7c6.2-2,10.7-7.9,10.7-14.7
	C31.6,7.8,24.6,0.8,16,0.8L16,0.8z"/>
</svg>
